<mxfile host="Electron" modified="2023-06-23T14:22:38.530Z" agent="Mozilla/5.0 (Windows NT 10.0; Win64; x64) AppleWebKit/537.36 (KHTML, like Gecko) draw.io/21.2.8 Chrome/112.0.5615.165 Electron/24.2.0 Safari/537.36" etag="XaipH-ECSp6XSPdR1416" version="21.2.8" type="device">
  <diagram name="Page-1" id="LoCD6YoONjNRBznMingp">
    <mxGraphModel dx="2027" dy="763" grid="1" gridSize="10" guides="1" tooltips="1" connect="1" arrows="1" fold="1" page="1" pageScale="1" pageWidth="827" pageHeight="1169" math="0" shadow="0">
      <root>
        <mxCell id="0" />
        <mxCell id="1" parent="0" />
        <mxCell id="N2T1iUw28egidDGyfOAY-4" value="E1:admin" style="html=1;dashed=0;whiteSpace=wrap;" parent="1" vertex="1">
          <mxGeometry x="-817" y="344" width="100" height="50" as="geometry" />
        </mxCell>
        <mxCell id="N2T1iUw28egidDGyfOAY-6" value="E3:agent&lt;span style=&quot;white-space: pre;&quot;&gt; &lt;/span&gt;" style="html=1;dashed=0;whiteSpace=wrap;" parent="1" vertex="1">
          <mxGeometry x="-807" y="475" width="100" height="50" as="geometry" />
        </mxCell>
        <mxCell id="N2T1iUw28egidDGyfOAY-8" value="E4/:Artist" style="html=1;dashed=0;whiteSpace=wrap;" parent="1" vertex="1">
          <mxGeometry x="-257" y="370" width="100" height="70" as="geometry" />
        </mxCell>
        <mxCell id="N2T1iUw28egidDGyfOAY-10" value="E6:police" style="html=1;dashed=0;whiteSpace=wrap;" parent="1" vertex="1">
          <mxGeometry x="-780" y="280" width="100" height="50" as="geometry" />
        </mxCell>
        <mxCell id="N2T1iUw28egidDGyfOAY-11" value="" style="endArrow=open;endFill=1;endSize=12;html=1;rounded=0;entryX=0;entryY=0.5;entryDx=0;entryDy=0;exitX=1;exitY=0.75;exitDx=0;exitDy=0;" parent="1" source="N2T1iUw28egidDGyfOAY-6" target="p6-aWCcqPT14QumifLpz-1" edge="1">
          <mxGeometry width="160" relative="1" as="geometry">
            <mxPoint x="-717" y="474" as="sourcePoint" />
            <mxPoint x="-504" y="506" as="targetPoint" />
            <Array as="points" />
          </mxGeometry>
        </mxCell>
        <mxCell id="N2T1iUw28egidDGyfOAY-29" value="F11 פרטי האומנים" style="edgeLabel;html=1;align=center;verticalAlign=middle;resizable=0;points=[];" parent="N2T1iUw28egidDGyfOAY-11" vertex="1" connectable="0">
          <mxGeometry x="-0.0364" y="-1" relative="1" as="geometry">
            <mxPoint y="1" as="offset" />
          </mxGeometry>
        </mxCell>
        <mxCell id="N2T1iUw28egidDGyfOAY-13" value="" style="endArrow=open;endFill=1;endSize=12;html=1;rounded=0;exitX=1;exitY=0.5;exitDx=0;exitDy=0;entryX=0.204;entryY=0.03;entryDx=0;entryDy=0;entryPerimeter=0;" parent="1" source="N2T1iUw28egidDGyfOAY-10" target="N2T1iUw28egidDGyfOAY-17" edge="1">
          <mxGeometry width="160" relative="1" as="geometry">
            <mxPoint x="-697" y="823.5" as="sourcePoint" />
            <mxPoint x="-430" y="290" as="targetPoint" />
            <Array as="points">
              <mxPoint x="-550" y="280" />
            </Array>
          </mxGeometry>
        </mxCell>
        <mxCell id="N2T1iUw28egidDGyfOAY-34" value="F9 הנחיות" style="edgeLabel;html=1;align=center;verticalAlign=middle;resizable=0;points=[];" parent="N2T1iUw28egidDGyfOAY-13" vertex="1" connectable="0">
          <mxGeometry x="0.0182" y="3" relative="1" as="geometry">
            <mxPoint y="1" as="offset" />
          </mxGeometry>
        </mxCell>
        <mxCell id="N2T1iUw28egidDGyfOAY-14" value="F19 פרטי הדווח&amp;nbsp;" style="endArrow=open;endFill=1;endSize=12;html=1;rounded=0;exitX=1;exitY=1;exitDx=0;exitDy=0;" parent="1" source="N2T1iUw28egidDGyfOAY-17" edge="1">
          <mxGeometry x="0.0223" y="-3" width="160" relative="1" as="geometry">
            <mxPoint x="-517" y="704" as="sourcePoint" />
            <mxPoint x="-260" y="410" as="targetPoint" />
            <Array as="points">
              <mxPoint x="-340" y="400" />
            </Array>
            <mxPoint as="offset" />
          </mxGeometry>
        </mxCell>
        <mxCell id="N2T1iUw28egidDGyfOAY-17" value="2&lt;br&gt;הגדרת &amp;nbsp;ושיבוץ ההופעות" style="shape=ellipse;html=1;dashed=0;whiteSpace=wrap;aspect=fixed;perimeter=ellipsePerimeter;" parent="1" vertex="1">
          <mxGeometry x="-457" y="300" width="90" height="90" as="geometry" />
        </mxCell>
        <mxCell id="N2T1iUw28egidDGyfOAY-35" value="F28 פרטי ההזמנות&amp;nbsp;" style="endArrow=open;endFill=1;endSize=12;html=1;rounded=0;entryX=-0.004;entryY=0.366;entryDx=0;entryDy=0;entryPerimeter=0;" parent="1" target="N2T1iUw28egidDGyfOAY-63" edge="1">
          <mxGeometry x="-0.2672" y="3" width="160" relative="1" as="geometry">
            <mxPoint x="-714" y="885" as="sourcePoint" />
            <mxPoint x="-354" y="770" as="targetPoint" />
            <Array as="points" />
            <mxPoint as="offset" />
          </mxGeometry>
        </mxCell>
        <mxCell id="N2T1iUw28egidDGyfOAY-41" value="" style="endArrow=open;endFill=1;endSize=12;html=1;rounded=0;" parent="1" edge="1">
          <mxGeometry width="160" relative="1" as="geometry">
            <mxPoint x="-367" y="345" as="sourcePoint" />
            <mxPoint x="-150" y="350" as="targetPoint" />
            <Array as="points" />
          </mxGeometry>
        </mxCell>
        <mxCell id="N2T1iUw28egidDGyfOAY-93" value="C6 פרטי ההופעות&amp;nbsp; ואזורים ומסיבות&lt;br&gt;&amp;nbsp;שהגדרו ושבוצו&lt;span style=&quot;&quot;&gt; &lt;/span&gt;&amp;nbsp;" style="edgeLabel;html=1;align=center;verticalAlign=middle;resizable=0;points=[];" parent="N2T1iUw28egidDGyfOAY-41" vertex="1" connectable="0">
          <mxGeometry x="-0.2147" y="-1" relative="1" as="geometry">
            <mxPoint x="13" y="-1" as="offset" />
          </mxGeometry>
        </mxCell>
        <mxCell id="N2T1iUw28egidDGyfOAY-42" value="D4" style="html=1;dashed=0;whiteSpace=wrap;shape=mxgraph.dfd.dataStoreID;align=left;spacingLeft=3;points=[[0,0],[0.5,0],[1,0],[0,0.5],[1,0.5],[0,1],[0.5,1],[1,1]];" parent="1" vertex="1">
          <mxGeometry x="-147" y="330" width="130" height="30" as="geometry" />
        </mxCell>
        <mxCell id="N2T1iUw28egidDGyfOAY-44" value="&lt;span style=&quot;font-weight: normal;&quot;&gt;ההופעות&amp;nbsp; ששבוצו&lt;/span&gt;" style="text;align=center;fontStyle=1;verticalAlign=middle;spacingLeft=3;spacingRight=3;strokeColor=none;rotatable=0;points=[[0,0.5],[1,0.5]];portConstraint=eastwest;html=1;" parent="1" vertex="1">
          <mxGeometry x="-107" y="332" width="80" height="26" as="geometry" />
        </mxCell>
        <mxCell id="N2T1iUw28egidDGyfOAY-48" value="" style="line;strokeWidth=1;fillColor=none;align=left;verticalAlign=middle;spacingTop=-1;spacingLeft=3;spacingRight=3;rotatable=0;labelPosition=right;points=[];portConstraint=eastwest;strokeColor=inherit;" parent="1" vertex="1">
          <mxGeometry x="-707" y="475" height="8" as="geometry" />
        </mxCell>
        <mxCell id="N2T1iUw28egidDGyfOAY-51" value="4&lt;br&gt;&amp;nbsp;הפקדת וניהול הדווח&amp;nbsp;" style="shape=ellipse;html=1;dashed=0;whiteSpace=wrap;aspect=fixed;perimeter=ellipsePerimeter;" parent="1" vertex="1">
          <mxGeometry x="-442" y="570" width="80" height="80" as="geometry" />
        </mxCell>
        <mxCell id="N2T1iUw28egidDGyfOAY-52" value="E3/:agent&lt;span style=&quot;white-space: pre;&quot;&gt; &lt;/span&gt;" style="html=1;dashed=0;whiteSpace=wrap;" parent="1" vertex="1">
          <mxGeometry x="-817" y="679" width="100" height="50" as="geometry" />
        </mxCell>
        <mxCell id="N2T1iUw28egidDGyfOAY-53" value="F23 קריטריונים הדוייח&amp;nbsp;" style="endArrow=open;endFill=1;endSize=12;html=1;rounded=0;exitX=1;exitY=0.75;exitDx=0;exitDy=0;" parent="1" source="N2T1iUw28egidDGyfOAY-52" edge="1">
          <mxGeometry x="-0.0457" width="160" relative="1" as="geometry">
            <mxPoint x="-710" y="710" as="sourcePoint" />
            <mxPoint x="-440" y="620" as="targetPoint" />
            <Array as="points">
              <mxPoint x="-580" y="690" />
            </Array>
            <mxPoint as="offset" />
          </mxGeometry>
        </mxCell>
        <mxCell id="N2T1iUw28egidDGyfOAY-63" value="5&lt;br&gt;טיפול &amp;nbsp;בהזמות &amp;nbsp;&amp;nbsp;" style="shape=ellipse;html=1;dashed=0;whiteSpace=wrap;aspect=fixed;perimeter=ellipsePerimeter;" parent="1" vertex="1">
          <mxGeometry x="-444" y="820" width="90" height="90" as="geometry" />
        </mxCell>
        <mxCell id="N2T1iUw28egidDGyfOAY-64" value="E6/:police" style="html=1;dashed=0;whiteSpace=wrap;" parent="1" vertex="1">
          <mxGeometry x="-804" y="1000" width="100" height="50" as="geometry" />
        </mxCell>
        <mxCell id="N2T1iUw28egidDGyfOAY-66" value="" style="endArrow=open;endFill=1;endSize=12;html=1;rounded=0;exitX=1;exitY=0.5;exitDx=0;exitDy=0;entryX=0.056;entryY=0.856;entryDx=0;entryDy=0;entryPerimeter=0;" parent="1" source="N2T1iUw28egidDGyfOAY-64" target="N2T1iUw28egidDGyfOAY-63" edge="1">
          <mxGeometry width="160" relative="1" as="geometry">
            <mxPoint x="-674" y="990" as="sourcePoint" />
            <mxPoint x="-604" y="935" as="targetPoint" />
            <Array as="points" />
          </mxGeometry>
        </mxCell>
        <mxCell id="N2T1iUw28egidDGyfOAY-67" value="F29 הנחיות" style="edgeLabel;html=1;align=center;verticalAlign=middle;resizable=0;points=[];" parent="N2T1iUw28egidDGyfOAY-66" vertex="1" connectable="0">
          <mxGeometry x="-0.02" y="-1" relative="1" as="geometry">
            <mxPoint y="-1" as="offset" />
          </mxGeometry>
        </mxCell>
        <mxCell id="N2T1iUw28egidDGyfOAY-71" value="C8 פרטי הוחרגים ווהזמנות&amp;nbsp;" style="endArrow=open;endFill=1;endSize=12;html=1;rounded=0;" parent="1" source="N2T1iUw28egidDGyfOAY-63" edge="1">
          <mxGeometry x="0.128" y="-5" width="160" relative="1" as="geometry">
            <mxPoint x="-704" y="790" as="sourcePoint" />
            <mxPoint x="-694" y="800" as="targetPoint" />
            <mxPoint x="-1" y="1" as="offset" />
            <Array as="points">
              <mxPoint x="-514" y="780" />
            </Array>
          </mxGeometry>
        </mxCell>
        <mxCell id="N2T1iUw28egidDGyfOAY-75" value="D6" style="html=1;dashed=0;whiteSpace=wrap;shape=mxgraph.dfd.dataStoreID;align=left;spacingLeft=3;points=[[0,0],[0.5,0],[1,0],[0,0.5],[1,0.5],[0,1],[0.5,1],[1,1]];" parent="1" vertex="1">
          <mxGeometry x="-227" y="790" width="180" height="30" as="geometry" />
        </mxCell>
        <mxCell id="N2T1iUw28egidDGyfOAY-77" value="&lt;span style=&quot;font-weight: 400;&quot;&gt;&amp;nbsp;פרטי ההזמנות המעדכונת&amp;nbsp;&lt;/span&gt;" style="text;align=center;fontStyle=1;verticalAlign=middle;spacingLeft=3;spacingRight=3;strokeColor=none;rotatable=0;points=[[0,0.5],[1,0.5]];portConstraint=eastwest;html=1;" parent="1" vertex="1">
          <mxGeometry x="-187" y="794" width="140" height="26" as="geometry" />
        </mxCell>
        <mxCell id="N2T1iUw28egidDGyfOAY-79" value="F30 שינוי בהזמנות&amp;nbsp;" style="endArrow=open;endFill=1;endSize=12;html=1;rounded=0;entryX=0;entryY=0;entryDx=0;entryDy=0;exitX=0.985;exitY=0.259;exitDx=0;exitDy=0;exitPerimeter=0;" parent="1" source="N2T1iUw28egidDGyfOAY-63" target="N2T1iUw28egidDGyfOAY-75" edge="1">
          <mxGeometry width="160" relative="1" as="geometry">
            <mxPoint x="-404" y="860" as="sourcePoint" />
            <mxPoint x="-304" y="1000" as="targetPoint" />
            <Array as="points">
              <mxPoint x="-297" y="806" />
            </Array>
          </mxGeometry>
        </mxCell>
        <mxCell id="N2T1iUw28egidDGyfOAY-84" value="C9 החלטה לשינוי&amp;nbsp;" style="endArrow=open;endFill=1;endSize=12;html=1;rounded=0;exitX=1;exitY=0.75;exitDx=0;exitDy=0;entryX=0;entryY=0.222;entryDx=0;entryDy=0;entryPerimeter=0;" parent="1" source="qbLqcum838saRyOhB_f3-7" target="N2T1iUw28egidDGyfOAY-63" edge="1">
          <mxGeometry x="0.3333" y="10" width="160" relative="1" as="geometry">
            <mxPoint x="-224" y="790" as="sourcePoint" />
            <mxPoint x="-514" y="830" as="targetPoint" />
            <Array as="points" />
            <mxPoint as="offset" />
          </mxGeometry>
        </mxCell>
        <mxCell id="N2T1iUw28egidDGyfOAY-149" value="" style="endArrow=open;endFill=1;endSize=12;html=1;rounded=0;entryX=1;entryY=0.5;entryDx=0;entryDy=0;exitX=0;exitY=1;exitDx=0;exitDy=0;" parent="1" source="N2T1iUw28egidDGyfOAY-75" target="N2T1iUw28egidDGyfOAY-63" edge="1">
          <mxGeometry width="160" relative="1" as="geometry">
            <mxPoint x="-254" y="860" as="sourcePoint" />
            <mxPoint x="-684" y="1090" as="targetPoint" />
            <Array as="points">
              <mxPoint x="-327" y="866" />
            </Array>
          </mxGeometry>
        </mxCell>
        <mxCell id="N2T1iUw28egidDGyfOAY-150" value="F31&amp;nbsp; פרטי הזמנות העדכונית" style="edgeLabel;html=1;align=center;verticalAlign=middle;resizable=0;points=[];" parent="N2T1iUw28egidDGyfOAY-149" vertex="1" connectable="0">
          <mxGeometry x="-0.2346" y="1" relative="1" as="geometry">
            <mxPoint as="offset" />
          </mxGeometry>
        </mxCell>
        <mxCell id="qbLqcum838saRyOhB_f3-6" value="E5/:partya" style="html=1;dashed=0;whiteSpace=wrap;" parent="1" vertex="1">
          <mxGeometry x="-814" y="860" width="100" height="50" as="geometry" />
        </mxCell>
        <mxCell id="qbLqcum838saRyOhB_f3-7" value="E1/:admin" style="html=1;dashed=0;whiteSpace=wrap;" parent="1" vertex="1">
          <mxGeometry x="-804" y="770" width="100" height="50" as="geometry" />
        </mxCell>
        <mxCell id="qbLqcum838saRyOhB_f3-12" value="" style="endArrow=open;endFill=1;endSize=12;html=1;rounded=0;exitX=0.03;exitY=0.741;exitDx=0;exitDy=0;exitPerimeter=0;" parent="1" source="N2T1iUw28egidDGyfOAY-17" target="N2T1iUw28egidDGyfOAY-6" edge="1">
          <mxGeometry x="-0.0001" width="160" relative="1" as="geometry">
            <mxPoint x="-460" y="360" as="sourcePoint" />
            <mxPoint x="-707" y="464" as="targetPoint" />
            <Array as="points">
              <mxPoint x="-500" y="390" />
              <mxPoint x="-580" y="400" />
              <mxPoint x="-760" y="410" />
            </Array>
            <mxPoint as="offset" />
          </mxGeometry>
        </mxCell>
        <mxCell id="suvCpf5QZivgFpeuIAjY-24" value="C4 ההופעות שהוגדרו ועדין לא בודקו&amp;nbsp;" style="edgeLabel;html=1;align=center;verticalAlign=middle;resizable=0;points=[];" parent="qbLqcum838saRyOhB_f3-12" vertex="1" connectable="0">
          <mxGeometry x="-0.0315" y="1" relative="1" as="geometry">
            <mxPoint as="offset" />
          </mxGeometry>
        </mxCell>
        <mxCell id="p6-aWCcqPT14QumifLpz-1" value="3&lt;br&gt;&amp;nbsp;ניהול הגדרת סוכן&amp;amp;אומן" style="shape=ellipse;html=1;dashed=0;whiteSpace=wrap;aspect=fixed;perimeter=ellipsePerimeter;" parent="1" vertex="1">
          <mxGeometry x="-447" y="454" width="80" height="80" as="geometry" />
        </mxCell>
        <mxCell id="p6-aWCcqPT14QumifLpz-2" value="D5" style="html=1;dashed=0;whiteSpace=wrap;shape=mxgraph.dfd.dataStoreID;align=left;spacingLeft=3;points=[[0,0],[0.5,0],[1,0],[0,0.5],[1,0.5],[0,1],[0.5,1],[1,1]];" parent="1" vertex="1">
          <mxGeometry x="-177" y="494" width="127" height="30" as="geometry" />
        </mxCell>
        <mxCell id="p6-aWCcqPT14QumifLpz-3" value="פרטי סוכן ואומון" style="text;whiteSpace=wrap;html=1;" parent="1" vertex="1">
          <mxGeometry x="-137" y="494" width="110" height="40" as="geometry" />
        </mxCell>
        <mxCell id="p6-aWCcqPT14QumifLpz-4" value="F12 פרטי האומנים" style="endArrow=open;endFill=1;endSize=12;html=1;rounded=0;" parent="1" edge="1">
          <mxGeometry width="160" relative="1" as="geometry">
            <mxPoint x="-367" y="484" as="sourcePoint" />
            <mxPoint x="-180" y="510" as="targetPoint" />
            <Array as="points">
              <mxPoint x="-280" y="490" />
            </Array>
          </mxGeometry>
        </mxCell>
        <mxCell id="p6-aWCcqPT14QumifLpz-6" value="F13 פרטי סוכן" style="endArrow=open;endFill=1;endSize=12;html=1;rounded=0;" parent="1" target="p6-aWCcqPT14QumifLpz-1" edge="1">
          <mxGeometry width="160" relative="1" as="geometry">
            <mxPoint x="-177" y="514" as="sourcePoint" />
            <mxPoint x="-17" y="514" as="targetPoint" />
          </mxGeometry>
        </mxCell>
        <mxCell id="p6-aWCcqPT14QumifLpz-7" value="E4:Artist" style="html=1;dashed=0;whiteSpace=wrap;" parent="1" vertex="1">
          <mxGeometry x="-817" y="550" width="100" height="50" as="geometry" />
        </mxCell>
        <mxCell id="p6-aWCcqPT14QumifLpz-8" value="F15 פרטי סוכן" style="endArrow=open;endFill=1;endSize=12;html=1;rounded=0;entryX=1;entryY=0.25;entryDx=0;entryDy=0;exitX=0;exitY=1;exitDx=0;exitDy=0;" parent="1" source="p6-aWCcqPT14QumifLpz-1" target="p6-aWCcqPT14QumifLpz-7" edge="1">
          <mxGeometry width="160" relative="1" as="geometry">
            <mxPoint x="-437" y="534" as="sourcePoint" />
            <mxPoint x="-267" y="534" as="targetPoint" />
          </mxGeometry>
        </mxCell>
        <mxCell id="p6-aWCcqPT14QumifLpz-9" value="F16 פרטי סוכן חדש&quot;Switsh&quot;" style="endArrow=open;endFill=1;endSize=12;html=1;rounded=0;entryX=0.5;entryY=1;entryDx=0;entryDy=0;exitX=1;exitY=0.75;exitDx=0;exitDy=0;" parent="1" source="p6-aWCcqPT14QumifLpz-7" target="p6-aWCcqPT14QumifLpz-1" edge="1">
          <mxGeometry width="160" relative="1" as="geometry">
            <mxPoint x="-717" y="624" as="sourcePoint" />
            <mxPoint x="-407" y="544" as="targetPoint" />
            <Array as="points">
              <mxPoint x="-567" y="604" />
            </Array>
          </mxGeometry>
        </mxCell>
        <mxCell id="p6-aWCcqPT14QumifLpz-10" value="F9 פרטי סוכן" style="endArrow=open;endFill=1;endSize=12;html=1;rounded=0;entryX=0.021;entryY=0.184;entryDx=0;entryDy=0;entryPerimeter=0;exitX=1;exitY=0.75;exitDx=0;exitDy=0;" parent="1" source="N2T1iUw28egidDGyfOAY-6" target="p6-aWCcqPT14QumifLpz-1" edge="1">
          <mxGeometry width="160" relative="1" as="geometry">
            <mxPoint x="-707" y="474" as="sourcePoint" />
            <mxPoint x="-547" y="474" as="targetPoint" />
            <Array as="points">
              <mxPoint x="-560" y="480" />
            </Array>
          </mxGeometry>
        </mxCell>
        <mxCell id="p6-aWCcqPT14QumifLpz-11" value="F10 פרטי סוכן" style="endArrow=open;endFill=1;endSize=12;html=1;rounded=0;" parent="1" edge="1">
          <mxGeometry x="-0.0027" width="160" relative="1" as="geometry">
            <mxPoint x="-377" y="464" as="sourcePoint" />
            <mxPoint x="-190" y="490" as="targetPoint" />
            <Array as="points">
              <mxPoint x="-270" y="460" />
            </Array>
            <mxPoint as="offset" />
          </mxGeometry>
        </mxCell>
        <mxCell id="vTTa9ziqKROMKCM0IjdK-1" value="T" style="triangle;whiteSpace=wrap;html=1;direction=north;" parent="1" vertex="1">
          <mxGeometry x="-760" y="95" width="80" height="60" as="geometry" />
        </mxCell>
        <mxCell id="vTTa9ziqKROMKCM0IjdK-2" value="אחד לחודש" style="endArrow=classic;html=1;rounded=0;entryX=0;entryY=1;entryDx=0;entryDy=0;" parent="1" source="vTTa9ziqKROMKCM0IjdK-1" target="suvCpf5QZivgFpeuIAjY-1" edge="1">
          <mxGeometry width="50" height="50" relative="1" as="geometry">
            <mxPoint x="-737" y="604" as="sourcePoint" />
            <mxPoint x="-460" y="168" as="targetPoint" />
          </mxGeometry>
        </mxCell>
        <mxCell id="vTTa9ziqKROMKCM0IjdK-3" value="T" style="triangle;whiteSpace=wrap;html=1;direction=north;" parent="1" vertex="1">
          <mxGeometry x="-784" y="930" width="80" height="60" as="geometry" />
        </mxCell>
        <mxCell id="vTTa9ziqKROMKCM0IjdK-4" value="מדי יום ב 22:00" style="endArrow=classic;html=1;rounded=0;entryX=0.004;entryY=0.633;entryDx=0;entryDy=0;entryPerimeter=0;exitX=0.5;exitY=1;exitDx=0;exitDy=0;" parent="1" source="vTTa9ziqKROMKCM0IjdK-3" target="N2T1iUw28egidDGyfOAY-63" edge="1">
          <mxGeometry width="50" height="50" relative="1" as="geometry">
            <mxPoint x="-714" y="950" as="sourcePoint" />
            <mxPoint x="-664" y="900" as="targetPoint" />
          </mxGeometry>
        </mxCell>
        <mxCell id="suvCpf5QZivgFpeuIAjY-1" value="1&lt;br&gt;ניהול קבלת הנתונים" style="shape=ellipse;html=1;dashed=0;whiteSpace=wrap;aspect=fixed;perimeter=ellipsePerimeter;" parent="1" vertex="1">
          <mxGeometry x="-490" y="20" width="90" height="90" as="geometry" />
        </mxCell>
        <mxCell id="suvCpf5QZivgFpeuIAjY-2" value="E1:admin" style="html=1;dashed=0;whiteSpace=wrap;" parent="1" vertex="1">
          <mxGeometry x="-770" y="20" width="100" height="70" as="geometry" />
        </mxCell>
        <mxCell id="suvCpf5QZivgFpeuIAjY-3" value="" style="endArrow=open;endFill=1;endSize=12;html=1;rounded=0;entryX=0;entryY=0;entryDx=0;entryDy=0;" parent="1" target="suvCpf5QZivgFpeuIAjY-1" edge="1">
          <mxGeometry width="160" relative="1" as="geometry">
            <mxPoint x="-670" y="30" as="sourcePoint" />
            <mxPoint x="-480" y="30" as="targetPoint" />
            <Array as="points" />
          </mxGeometry>
        </mxCell>
        <mxCell id="suvCpf5QZivgFpeuIAjY-4" value="C1 פרטי מסיבות וערים" style="edgeLabel;html=1;align=center;verticalAlign=middle;resizable=0;points=[];" parent="suvCpf5QZivgFpeuIAjY-3" vertex="1" connectable="0">
          <mxGeometry x="0.1273" y="3" relative="1" as="geometry">
            <mxPoint x="-15" y="4" as="offset" />
          </mxGeometry>
        </mxCell>
        <mxCell id="suvCpf5QZivgFpeuIAjY-5" value="D1" style="html=1;dashed=0;whiteSpace=wrap;shape=mxgraph.dfd.dataStoreID;align=left;spacingLeft=3;points=[[0,0],[0.5,0],[1,0],[0,0.5],[1,0.5],[0,1],[0.5,1],[1,1]];" parent="1" vertex="1">
          <mxGeometry x="-177" y="20" width="130" height="30" as="geometry" />
        </mxCell>
        <mxCell id="suvCpf5QZivgFpeuIAjY-6" value="" style="endArrow=open;endFill=1;endSize=12;html=1;rounded=0;exitX=1;exitY=0;exitDx=0;exitDy=0;" parent="1" source="suvCpf5QZivgFpeuIAjY-1" edge="1">
          <mxGeometry width="160" relative="1" as="geometry">
            <mxPoint x="-310" y="140" as="sourcePoint" />
            <mxPoint x="-180" y="33" as="targetPoint" />
            <Array as="points" />
          </mxGeometry>
        </mxCell>
        <mxCell id="suvCpf5QZivgFpeuIAjY-7" value="C2 פרטי מסיבות וערים&amp;nbsp;" style="edgeLabel;html=1;align=center;verticalAlign=middle;resizable=0;points=[];" parent="suvCpf5QZivgFpeuIAjY-6" vertex="1" connectable="0">
          <mxGeometry x="-0.2147" y="-1" relative="1" as="geometry">
            <mxPoint x="13" y="-1" as="offset" />
          </mxGeometry>
        </mxCell>
        <mxCell id="suvCpf5QZivgFpeuIAjY-8" value="" style="endArrow=open;endFill=1;endSize=12;html=1;rounded=0;entryX=0.056;entryY=0.689;entryDx=0;entryDy=0;entryPerimeter=0;exitX=1;exitY=0.75;exitDx=0;exitDy=0;" parent="1" source="suvCpf5QZivgFpeuIAjY-2" target="suvCpf5QZivgFpeuIAjY-1" edge="1">
          <mxGeometry width="160" relative="1" as="geometry">
            <mxPoint x="-670" y="82" as="sourcePoint" />
            <mxPoint x="-490" y="70" as="targetPoint" />
            <Array as="points" />
          </mxGeometry>
        </mxCell>
        <mxCell id="suvCpf5QZivgFpeuIAjY-9" value="F1 פרטי איזורים&amp;nbsp;" style="edgeLabel;html=1;align=center;verticalAlign=middle;resizable=0;points=[];" parent="suvCpf5QZivgFpeuIAjY-8" vertex="1" connectable="0">
          <mxGeometry x="0.1273" y="3" relative="1" as="geometry">
            <mxPoint x="-15" y="4" as="offset" />
          </mxGeometry>
        </mxCell>
        <mxCell id="suvCpf5QZivgFpeuIAjY-10" value="פרטי המסיבות&amp;nbsp;" style="edgeLabel;html=1;align=center;verticalAlign=middle;resizable=0;points=[];" parent="1" vertex="1" connectable="0">
          <mxGeometry x="-107" y="55" as="geometry">
            <mxPoint x="1" y="-20" as="offset" />
          </mxGeometry>
        </mxCell>
        <mxCell id="suvCpf5QZivgFpeuIAjY-11" value="" style="endArrow=open;endFill=1;endSize=12;html=1;rounded=0;entryX=0;entryY=0.5;entryDx=0;entryDy=0;" parent="1" target="suvCpf5QZivgFpeuIAjY-13" edge="1">
          <mxGeometry width="160" relative="1" as="geometry">
            <mxPoint x="-410" y="90" as="sourcePoint" />
            <mxPoint x="-200" y="100" as="targetPoint" />
            <Array as="points" />
          </mxGeometry>
        </mxCell>
        <mxCell id="suvCpf5QZivgFpeuIAjY-12" value="F5 פרטי איזורים&amp;nbsp;" style="edgeLabel;html=1;align=center;verticalAlign=middle;resizable=0;points=[];" parent="suvCpf5QZivgFpeuIAjY-11" vertex="1" connectable="0">
          <mxGeometry x="0.1273" y="3" relative="1" as="geometry">
            <mxPoint x="-15" y="4" as="offset" />
          </mxGeometry>
        </mxCell>
        <mxCell id="suvCpf5QZivgFpeuIAjY-13" value="D3" style="html=1;dashed=0;whiteSpace=wrap;shape=mxgraph.dfd.dataStoreID;align=left;spacingLeft=3;points=[[0,0],[0.5,0],[1,0],[0,0.5],[1,0.5],[0,1],[0.5,1],[1,1]];" parent="1" vertex="1">
          <mxGeometry x="-287" y="120" width="130" height="30" as="geometry" />
        </mxCell>
        <mxCell id="suvCpf5QZivgFpeuIAjY-17" value="פרטי איזורים&amp;nbsp;" style="edgeLabel;html=1;align=center;verticalAlign=middle;resizable=0;points=[];" parent="1" vertex="1" connectable="0">
          <mxGeometry x="-117" y="80" as="geometry">
            <mxPoint x="-90" y="55" as="offset" />
          </mxGeometry>
        </mxCell>
        <mxCell id="suvCpf5QZivgFpeuIAjY-18" value="" style="endArrow=open;endFill=1;endSize=12;html=1;rounded=0;entryX=0.5;entryY=0;entryDx=0;entryDy=0;exitX=0.5;exitY=1;exitDx=0;exitDy=0;" parent="1" source="suvCpf5QZivgFpeuIAjY-13" target="N2T1iUw28egidDGyfOAY-17" edge="1">
          <mxGeometry width="160" relative="1" as="geometry">
            <mxPoint x="-300" y="200" as="sourcePoint" />
            <mxPoint x="-67" y="195" as="targetPoint" />
            <Array as="points" />
          </mxGeometry>
        </mxCell>
        <mxCell id="suvCpf5QZivgFpeuIAjY-19" value="F7 פרטי איזורים&amp;nbsp;" style="edgeLabel;html=1;align=center;verticalAlign=middle;resizable=0;points=[];" parent="suvCpf5QZivgFpeuIAjY-18" vertex="1" connectable="0">
          <mxGeometry x="0.1273" y="3" relative="1" as="geometry">
            <mxPoint x="-15" y="4" as="offset" />
          </mxGeometry>
        </mxCell>
        <mxCell id="suvCpf5QZivgFpeuIAjY-20" value="" style="endArrow=open;endFill=1;endSize=12;html=1;rounded=0;exitX=0.746;exitY=1.1;exitDx=0;exitDy=0;exitPerimeter=0;entryX=1;entryY=0;entryDx=0;entryDy=0;" parent="1" source="suvCpf5QZivgFpeuIAjY-5" target="N2T1iUw28egidDGyfOAY-17" edge="1">
          <mxGeometry width="160" relative="1" as="geometry">
            <mxPoint x="-70" y="250" as="sourcePoint" />
            <mxPoint x="-80" y="270" as="targetPoint" />
            <Array as="points">
              <mxPoint x="-80" y="313" />
            </Array>
          </mxGeometry>
        </mxCell>
        <mxCell id="suvCpf5QZivgFpeuIAjY-21" value="C3 פרטי מסיבות וערים&amp;nbsp;" style="edgeLabel;html=1;align=center;verticalAlign=middle;resizable=0;points=[];" parent="suvCpf5QZivgFpeuIAjY-20" vertex="1" connectable="0">
          <mxGeometry x="-0.2147" y="-1" relative="1" as="geometry">
            <mxPoint x="13" y="-1" as="offset" />
          </mxGeometry>
        </mxCell>
        <mxCell id="suvCpf5QZivgFpeuIAjY-22" value="" style="endArrow=open;endFill=1;endSize=12;html=1;rounded=0;entryX=1;entryY=0.25;entryDx=0;entryDy=0;exitX=0.044;exitY=0.3;exitDx=0;exitDy=0;exitPerimeter=0;" parent="1" source="N2T1iUw28egidDGyfOAY-17" target="N2T1iUw28egidDGyfOAY-4" edge="1">
          <mxGeometry x="-0.0001" width="160" relative="1" as="geometry">
            <mxPoint x="-434" y="387" as="sourcePoint" />
            <mxPoint x="-707" y="468" as="targetPoint" />
            <Array as="points">
              <mxPoint x="-580" y="350" />
            </Array>
            <mxPoint as="offset" />
          </mxGeometry>
        </mxCell>
        <mxCell id="suvCpf5QZivgFpeuIAjY-27" value="C4 ההופעות שהוגדרו ועדין לא בודקו&amp;nbsp;" style="edgeLabel;html=1;align=center;verticalAlign=middle;resizable=0;points=[];" parent="suvCpf5QZivgFpeuIAjY-22" vertex="1" connectable="0">
          <mxGeometry x="0.0907" relative="1" as="geometry">
            <mxPoint as="offset" />
          </mxGeometry>
        </mxCell>
        <mxCell id="suvCpf5QZivgFpeuIAjY-25" value="" style="endArrow=open;endFill=1;endSize=12;html=1;rounded=0;exitX=1;exitY=1;exitDx=0;exitDy=0;" parent="1" source="N2T1iUw28egidDGyfOAY-4" target="N2T1iUw28egidDGyfOAY-17" edge="1">
          <mxGeometry x="-0.0001" width="160" relative="1" as="geometry">
            <mxPoint x="-444" y="309" as="sourcePoint" />
            <mxPoint x="-717" y="390" as="targetPoint" />
            <Array as="points" />
            <mxPoint as="offset" />
          </mxGeometry>
        </mxCell>
        <mxCell id="suvCpf5QZivgFpeuIAjY-26" value="C5 ההופעות שהוגדרו ובודקו&amp;nbsp;" style="edgeLabel;html=1;align=center;verticalAlign=middle;resizable=0;points=[];" parent="suvCpf5QZivgFpeuIAjY-25" vertex="1" connectable="0">
          <mxGeometry x="-0.0315" y="1" relative="1" as="geometry">
            <mxPoint as="offset" />
          </mxGeometry>
        </mxCell>
        <mxCell id="suvCpf5QZivgFpeuIAjY-28" value="" style="endArrow=open;endFill=1;endSize=12;html=1;rounded=0;entryX=0.133;entryY=0.933;entryDx=0;entryDy=0;entryPerimeter=0;exitX=1;exitY=0.25;exitDx=0;exitDy=0;" parent="1" source="N2T1iUw28egidDGyfOAY-6" target="N2T1iUw28egidDGyfOAY-17" edge="1">
          <mxGeometry x="-0.0001" width="160" relative="1" as="geometry">
            <mxPoint x="-700" y="490" as="sourcePoint" />
            <mxPoint x="-446" y="362" as="targetPoint" />
            <Array as="points" />
            <mxPoint as="offset" />
          </mxGeometry>
        </mxCell>
        <mxCell id="suvCpf5QZivgFpeuIAjY-29" value="C5 ההופעות שהוגדרו ובודקו&amp;nbsp;" style="edgeLabel;html=1;align=center;verticalAlign=middle;resizable=0;points=[];" parent="suvCpf5QZivgFpeuIAjY-28" vertex="1" connectable="0">
          <mxGeometry x="-0.0315" y="1" relative="1" as="geometry">
            <mxPoint as="offset" />
          </mxGeometry>
        </mxCell>
        <mxCell id="suvCpf5QZivgFpeuIAjY-30" value="E2:ADP&lt;span style=&quot;white-space: pre;&quot;&gt; &lt;/span&gt;" style="html=1;dashed=0;whiteSpace=wrap;" parent="1" vertex="1">
          <mxGeometry x="-770" y="160" width="100" height="50" as="geometry" />
        </mxCell>
        <mxCell id="suvCpf5QZivgFpeuIAjY-31" value="" style="endArrow=open;endFill=1;endSize=12;html=1;rounded=0;entryX=0.5;entryY=1;entryDx=0;entryDy=0;exitX=1;exitY=0.5;exitDx=0;exitDy=0;" parent="1" source="suvCpf5QZivgFpeuIAjY-30" target="suvCpf5QZivgFpeuIAjY-1" edge="1">
          <mxGeometry width="160" relative="1" as="geometry">
            <mxPoint x="-490" y="190" as="sourcePoint" />
            <mxPoint x="-208" y="179" as="targetPoint" />
            <Array as="points">
              <mxPoint x="-500" y="150" />
            </Array>
          </mxGeometry>
        </mxCell>
        <mxCell id="suvCpf5QZivgFpeuIAjY-32" value="F3 רמת הפופלריות" style="edgeLabel;html=1;align=center;verticalAlign=middle;resizable=0;points=[];" parent="suvCpf5QZivgFpeuIAjY-31" vertex="1" connectable="0">
          <mxGeometry x="-0.5091" y="3" relative="1" as="geometry">
            <mxPoint x="16" y="3" as="offset" />
          </mxGeometry>
        </mxCell>
        <mxCell id="suvCpf5QZivgFpeuIAjY-34" value="D2" style="html=1;dashed=0;whiteSpace=wrap;shape=mxgraph.dfd.dataStoreID;align=left;spacingLeft=3;points=[[0,0],[0.5,0],[1,0],[0,0.5],[1,0.5],[0,1],[0.5,1],[1,1]];" parent="1" vertex="1">
          <mxGeometry x="-237" y="65" width="130" height="30" as="geometry" />
        </mxCell>
        <mxCell id="suvCpf5QZivgFpeuIAjY-35" value="פרטי אומון" style="text;html=1;strokeColor=none;fillColor=none;align=center;verticalAlign=middle;whiteSpace=wrap;rounded=0;" parent="1" vertex="1">
          <mxGeometry x="-187" y="65" width="60" height="30" as="geometry" />
        </mxCell>
        <mxCell id="suvCpf5QZivgFpeuIAjY-36" value="" style="endArrow=open;endFill=1;endSize=12;html=1;rounded=0;exitX=1;exitY=0.5;exitDx=0;exitDy=0;entryX=0;entryY=0.5;entryDx=0;entryDy=0;" parent="1" source="suvCpf5QZivgFpeuIAjY-1" target="suvCpf5QZivgFpeuIAjY-34" edge="1">
          <mxGeometry width="160" relative="1" as="geometry">
            <mxPoint x="-310" y="80" as="sourcePoint" />
            <mxPoint x="-230" y="70" as="targetPoint" />
            <Array as="points" />
          </mxGeometry>
        </mxCell>
        <mxCell id="suvCpf5QZivgFpeuIAjY-37" value="F6 פרטי האומנים מעודכנים &amp;nbsp;" style="edgeLabel;html=1;align=center;verticalAlign=middle;resizable=0;points=[];" parent="suvCpf5QZivgFpeuIAjY-36" vertex="1" connectable="0">
          <mxGeometry x="-0.2147" y="-1" relative="1" as="geometry">
            <mxPoint x="13" y="-1" as="offset" />
          </mxGeometry>
        </mxCell>
        <mxCell id="suvCpf5QZivgFpeuIAjY-38" value="" style="endArrow=open;endFill=1;endSize=12;html=1;rounded=0;exitX=1;exitY=0.25;exitDx=0;exitDy=0;entryX=0.8;entryY=0.956;entryDx=0;entryDy=0;entryPerimeter=0;" parent="1" source="suvCpf5QZivgFpeuIAjY-40" target="suvCpf5QZivgFpeuIAjY-1" edge="1">
          <mxGeometry width="160" relative="1" as="geometry">
            <mxPoint x="-480" y="250" as="sourcePoint" />
            <mxPoint x="-416" y="107" as="targetPoint" />
            <Array as="points">
              <mxPoint x="-480" y="190" />
            </Array>
          </mxGeometry>
        </mxCell>
        <mxCell id="suvCpf5QZivgFpeuIAjY-39" value="F4 פרטי האומנים" style="edgeLabel;html=1;align=center;verticalAlign=middle;resizable=0;points=[];" parent="suvCpf5QZivgFpeuIAjY-38" vertex="1" connectable="0">
          <mxGeometry x="-0.0364" y="-1" relative="1" as="geometry">
            <mxPoint y="1" as="offset" />
          </mxGeometry>
        </mxCell>
        <mxCell id="suvCpf5QZivgFpeuIAjY-40" value="E3:agent&lt;span style=&quot;white-space: pre;&quot;&gt; &lt;/span&gt;" style="html=1;dashed=0;whiteSpace=wrap;" parent="1" vertex="1">
          <mxGeometry x="-780" y="220" width="100" height="50" as="geometry" />
        </mxCell>
        <mxCell id="suvCpf5QZivgFpeuIAjY-44" value="F8 פרטי אומן מעדכנים" style="endArrow=open;endFill=1;endSize=12;html=1;rounded=0;entryX=0.744;entryY=0;entryDx=0;entryDy=0;exitX=0.946;exitY=1;exitDx=0;exitDy=0;entryPerimeter=0;exitPerimeter=0;" parent="1" source="suvCpf5QZivgFpeuIAjY-34" target="N2T1iUw28egidDGyfOAY-17" edge="1">
          <mxGeometry x="0.0054" width="160" relative="1" as="geometry">
            <mxPoint x="-200" y="220" as="sourcePoint" />
            <mxPoint x="-445" y="116" as="targetPoint" />
            <Array as="points">
              <mxPoint x="-107" y="200" />
            </Array>
            <mxPoint as="offset" />
          </mxGeometry>
        </mxCell>
        <mxCell id="suvCpf5QZivgFpeuIAjY-47" value="" style="endArrow=open;endFill=1;endSize=12;html=1;rounded=0;exitX=0.325;exitY=1.038;exitDx=0;exitDy=0;exitPerimeter=0;entryX=1.013;entryY=0.3;entryDx=0;entryDy=0;entryPerimeter=0;" parent="1" source="N2T1iUw28egidDGyfOAY-44" target="N2T1iUw28egidDGyfOAY-51" edge="1">
          <mxGeometry width="160" relative="1" as="geometry">
            <mxPoint x="-160" y="380" as="sourcePoint" />
            <mxPoint x="-270" y="580" as="targetPoint" />
            <Array as="points">
              <mxPoint x="-20" y="460" />
              <mxPoint x="-20" y="600" />
              <mxPoint x="-190" y="598" />
            </Array>
          </mxGeometry>
        </mxCell>
        <mxCell id="suvCpf5QZivgFpeuIAjY-48" value="C7 פרטי ההופעות&amp;nbsp; ואזורים ומסיבות&lt;br&gt;&amp;nbsp;שהגדרו ושבוצו&lt;span style=&quot;&quot;&gt; &lt;/span&gt;&amp;nbsp;" style="edgeLabel;html=1;align=center;verticalAlign=middle;resizable=0;points=[];" parent="suvCpf5QZivgFpeuIAjY-47" vertex="1" connectable="0">
          <mxGeometry x="-0.2147" y="-1" relative="1" as="geometry">
            <mxPoint x="13" y="-1" as="offset" />
          </mxGeometry>
        </mxCell>
        <mxCell id="T0XAYBbNvRjeh07MvFfu-1" value="F14 פרטי האומנים" style="endArrow=open;endFill=1;endSize=12;html=1;rounded=0;exitX=0;exitY=1;exitDx=0;exitDy=0;entryX=0.942;entryY=0.713;entryDx=0;entryDy=0;entryPerimeter=0;" parent="1" source="p6-aWCcqPT14QumifLpz-2" target="p6-aWCcqPT14QumifLpz-1" edge="1">
          <mxGeometry width="160" relative="1" as="geometry">
            <mxPoint x="-150" y="560" as="sourcePoint" />
            <mxPoint x="-360" y="550" as="targetPoint" />
            <Array as="points">
              <mxPoint x="-290" y="530" />
            </Array>
          </mxGeometry>
        </mxCell>
        <mxCell id="T0XAYBbNvRjeh07MvFfu-2" value="F17 פרטי האומנים אחרי החלפה" style="endArrow=open;endFill=1;endSize=12;html=1;rounded=0;exitX=-0.008;exitY=0.767;exitDx=0;exitDy=0;entryX=1;entryY=1;entryDx=0;entryDy=0;exitPerimeter=0;" parent="1" source="p6-aWCcqPT14QumifLpz-1" target="N2T1iUw28egidDGyfOAY-6" edge="1">
          <mxGeometry width="160" relative="1" as="geometry">
            <mxPoint x="-167" y="534" as="sourcePoint" />
            <mxPoint x="-362" y="521" as="targetPoint" />
            <Array as="points" />
          </mxGeometry>
        </mxCell>
        <mxCell id="cBf465N1eEu5z2LR1fhA-1" value="" style="endArrow=open;endFill=1;endSize=12;html=1;rounded=0;exitX=1;exitY=0.5;exitDx=0;exitDy=0;" parent="1" source="N2T1iUw28egidDGyfOAY-6" edge="1">
          <mxGeometry x="-0.0001" width="160" relative="1" as="geometry">
            <mxPoint x="-690" y="494" as="sourcePoint" />
            <mxPoint x="-413" y="390" as="targetPoint" />
            <Array as="points">
              <mxPoint x="-453" y="426" />
            </Array>
            <mxPoint as="offset" />
          </mxGeometry>
        </mxCell>
        <mxCell id="cBf465N1eEu5z2LR1fhA-2" value="F18 קריטריונים הדוייח&amp;nbsp;" style="edgeLabel;html=1;align=center;verticalAlign=middle;resizable=0;points=[];" parent="cBf465N1eEu5z2LR1fhA-1" vertex="1" connectable="0">
          <mxGeometry x="-0.0315" y="1" relative="1" as="geometry">
            <mxPoint x="101" y="-37" as="offset" />
          </mxGeometry>
        </mxCell>
        <mxCell id="cBf465N1eEu5z2LR1fhA-4" value="F21 תחום תארכים" style="endArrow=open;endFill=1;endSize=12;html=1;rounded=0;entryX=-0.021;entryY=0.404;entryDx=0;entryDy=0;exitX=1;exitY=0.25;exitDx=0;exitDy=0;entryPerimeter=0;" parent="1" source="N2T1iUw28egidDGyfOAY-52" target="N2T1iUw28egidDGyfOAY-51" edge="1">
          <mxGeometry x="-0.1356" y="-3" width="160" relative="1" as="geometry">
            <mxPoint x="-700" y="720" as="sourcePoint" />
            <mxPoint x="-432" y="620" as="targetPoint" />
            <Array as="points">
              <mxPoint x="-610" y="650" />
            </Array>
            <mxPoint as="offset" />
          </mxGeometry>
        </mxCell>
        <mxCell id="cBf465N1eEu5z2LR1fhA-5" value="F22 פרטי הופעות" style="endArrow=open;endFill=1;endSize=12;html=1;rounded=0;exitX=0;exitY=0.5;exitDx=0;exitDy=0;entryX=1;entryY=0.5;entryDx=0;entryDy=0;" parent="1" source="N2T1iUw28egidDGyfOAY-51" target="N2T1iUw28egidDGyfOAY-52" edge="1">
          <mxGeometry x="-0.0468" width="160" relative="1" as="geometry">
            <mxPoint x="-690" y="730" as="sourcePoint" />
            <mxPoint x="-720" y="640" as="targetPoint" />
            <Array as="points">
              <mxPoint x="-580" y="670" />
            </Array>
            <mxPoint as="offset" />
          </mxGeometry>
        </mxCell>
        <mxCell id="cBf465N1eEu5z2LR1fhA-6" value="F20 פרטי החלטה&amp;nbsp;" style="endArrow=open;endFill=1;endSize=12;html=1;rounded=0;entryX=1.007;entryY=0.715;entryDx=0;entryDy=0;entryPerimeter=0;" parent="1" target="N2T1iUw28egidDGyfOAY-17" edge="1">
          <mxGeometry x="0.0223" y="-3" width="160" relative="1" as="geometry">
            <mxPoint x="-260" y="380" as="sourcePoint" />
            <mxPoint x="-250" y="420" as="targetPoint" />
            <Array as="points">
              <mxPoint x="-320" y="380" />
            </Array>
            <mxPoint as="offset" />
          </mxGeometry>
        </mxCell>
        <mxCell id="cBf465N1eEu5z2LR1fhA-7" value="F26 סיבות ההפעות שנדחו" style="endArrow=open;endFill=1;endSize=12;html=1;rounded=0;exitX=0.015;exitY=0.233;exitDx=0;exitDy=0;exitPerimeter=0;" parent="1" source="N2T1iUw28egidDGyfOAY-17" edge="1">
          <mxGeometry width="160" relative="1" as="geometry">
            <mxPoint x="-150" y="330" as="sourcePoint" />
            <mxPoint x="-720" y="350" as="targetPoint" />
            <Array as="points">
              <mxPoint x="-580" y="321" />
            </Array>
          </mxGeometry>
        </mxCell>
      </root>
    </mxGraphModel>
  </diagram>
</mxfile>
